# xmcd CD database file
#
# Track frame offsets:
#	150
#	20438
#	42688
#	58888
#	67063
#	82789
#	103801
#	118764
#	147048
#	163473
#	169361
#	183323
#
# Disc length: 2708 seconds
#
# Revision: 0
# Processed by: cddbd v1.5.1PL2 Copyright (c) Steve Scherf et al.
# Submitted via: CDex 1.40Release
#
DISCID=b20a920c
DTITLE=The Duttons - Best of the Duttons Vol 1
DYEAR=1998
DGENRE=Country
TTITLE0=Music In Your Heart
TTITLE1=Duelin' Banjos
TTITLE2='Till the Answer Comes
TTITLE3=Tom and Jerry
TTITLE4=Amazing Grace
TTITLE5=Orange Blossom Special
TTITLE6=Everyday
TTITLE7=Concert for Solo Violin in E Minor
TTITLE8=Devil Went Down to Georgia
TTITLE9=Cotton Patch Rag
TTITLE10=Just Another One Of Those Days
TTITLE11=Boil 'em Cabbage Down
EXTD=YEAR: 1998 ID3G: 2
EXTT0=
EXTT1=
EXTT2=
EXTT3=
EXTT4=
EXTT5=
EXTT6=
EXTT7=
EXTT8=
EXTT9=
EXTT10=
EXTT11=
PLAYORDER=
